# xmcd
#
# Track frame offsets: 
#        150
#        56252
#        91478
#        133431
#        160535
#
# Disc length: 3220 seconds
#
# Revision: 0
# Processed by: cddbd v1.5.2PL0 Copyright (c) Steve Scherf et al.
# Submitted via: ExactAudioCopy v1.0b1
#
DISCID=3a0c9205
DTITLE=Derek and the Dominos  - The Beat Goes On - Early Show - Disc 2
DYEAR=1900
DGENRE=
TTITLE0=Why Does Love Got to Be So Sad?
TTITLE1=Blues Power
TTITLE2=Stormy Monday
TTITLE3=Key to the Highway
TTITLE4=Tell the Truth
EXTD=
EXTT0=
EXTT1=
EXTT2=
EXTT3=
EXTT4=
PLAYORDER=
